<?xml version="1.0" encoding="iso-8859-1"?>
<!-- Uploaded to: SVG Repo, www.svgrepo.com, Generator: SVG Repo Mixer Tools -->
<!DOCTYPE svg PUBLIC "-//W3C//DTD SVG 1.1//EN" "http://www.w3.org/Graphics/SVG/1.1/DTD/svg11.dtd">
<svg height="800px" width="800px" version="1.1" id="Capa_1" xmlns="http://www.w3.org/2000/svg" xmlns:xlink="http://www.w3.org/1999/xlink" 
	 viewBox="0 0 230.33 230.33" xml:space="preserve">
<g>
	<g>
		<path style="fill:#DC4437;" d="M141.364,96.555H89.136c-0.395,1.915-0.77,3.802-1.123,5.652h54.439
			C142.112,100.357,141.745,98.47,141.364,96.555z"/>
		<path style="fill:#F2EFDC;" d="M140.184,90.905H90.337c-0.417,1.9-0.82,3.785-1.201,5.65h52.229
			C140.982,94.69,140.594,92.805,140.184,90.905z"/>
		<path style="fill:#663F30;" d="M115.369,41.416c-11.372,0-19.706,25.5-25.032,49.488h49.848
			C134.964,66.916,126.742,41.416,115.369,41.416z"/>
		<path style="fill:#663F30;" d="M98.791,132.362h0.523l7.77-13.456l7.77,13.456h0.523l7.77-13.456l7.77,13.456h0.522l7.771-13.456
			l7.77,13.456h0.1c0,0-1.52-13.527-4.627-30.154H88.013c-3.179,16.627-4.762,30.154-4.762,30.154l7.771-13.456L98.791,132.362z"/>
		<path style="fill:#F7C63B;" d="M91.021,118.906l-7.771,13.456h15.54L91.021,118.906z M91.021,121.971l5.106,8.844H85.915
			L91.021,121.971z"/>
		<path style="fill:#F7C63B;" d="M99.314,132.362h15.539l-7.77-13.456L99.314,132.362z M101.976,130.815l5.108-8.844l5.106,8.844
			H101.976z"/>
		<path style="fill:#F7C63B;" d="M115.377,132.362h15.54l-7.77-13.456L115.377,132.362z M118.04,130.815l5.107-8.844l5.107,8.844
			H118.04z"/>
		<path style="fill:#F7C63B;" d="M131.439,132.362h15.54l-7.77-13.456L131.439,132.362z M134.102,130.815l5.107-8.844l5.106,8.844
			H134.102z"/>
		<polygon style="fill:#F2EFDC;" points="134.102,130.815 144.316,130.815 139.21,121.971 		"/>
		<polygon style="fill:#F2EFDC;" points="118.04,130.815 128.254,130.815 123.146,121.971 		"/>
		<polygon style="fill:#F2EFDC;" points="101.976,130.815 112.19,130.815 107.084,121.971 		"/>
		<polygon style="fill:#F2EFDC;" points="91.021,121.971 85.915,130.815 96.128,130.815 		"/>
		<polygon style="fill:#DC4437;" points="16.323,153.32 4.103,153.32 10.214,163.901 		"/>
		<polygon style="fill:#DC4437;" points="35.544,153.32 23.324,153.32 29.434,163.901 		"/>
		<polygon style="fill:#DC4437;" points="54.764,153.32 42.544,153.32 48.654,163.901 		"/>
		<polygon style="fill:#DC4437;" points="73.984,153.32 61.765,153.32 67.875,163.901 		"/>
		<polygon style="fill:#DC4437;" points="92.575,153.32 80.355,153.32 86.466,163.901 		"/>
		<polygon style="fill:#DC4437;" points="111.797,153.32 99.576,153.32 105.684,163.901 		"/>
		<polygon style="fill:#DC4437;" points="131.016,153.32 118.796,153.32 124.906,163.901 		"/>
		<polygon style="fill:#DC4437;" points="150.235,153.32 138.016,153.32 144.125,163.901 		"/>
		<polygon style="fill:#DC4437;" points="168.693,153.32 156.473,153.32 162.583,163.901 		"/>
		<polygon style="fill:#DC4437;" points="187.92,153.32 175.693,153.32 181.804,163.901 		"/>
		<polygon style="fill:#DC4437;" points="207.141,153.32 194.913,153.32 201.023,163.901 		"/>
		<polygon style="fill:#DC4437;" points="220.244,163.901 226.352,153.32 214.134,153.32 		"/>
		<path style="fill:#F2EFDC;" d="M220.244,167.567l9.281-16.063c0-0.015,0.006-0.028,0.006-0.043h-18.583L220.244,167.567z
			 M220.244,163.901l-6.11-10.581h12.219L220.244,163.901z"/>
		<path style="fill:#F2EFDC;" d="M210.319,151.461h-18.591l9.295,16.105L210.319,151.461z M207.141,153.32l-6.117,10.581
			l-6.11-10.581H207.141z"/>
		<path style="fill:#F2EFDC;" d="M191.099,151.461h-18.584l9.289,16.105L191.099,151.461z M187.92,153.32l-6.116,10.581
			l-6.11-10.581H187.92z"/>
		<path style="fill:#F2EFDC;" d="M162.583,167.567l9.296-16.105h-18.458l-0.063,0.112L162.583,167.567z M168.693,153.32
			l-6.11,10.581l-6.11-10.581H168.693z"/>
		<path style="fill:#F2EFDC;" d="M153.358,151.574l-0.07-0.112H134.83l9.295,16.105L153.358,151.574z M150.235,153.32l-6.11,10.581
			l-6.109-10.581H150.235z"/>
		<path style="fill:#F2EFDC;" d="M134.202,151.461h-18.591l9.295,16.105L134.202,151.461z M131.016,153.32l-6.109,10.581
			l-6.11-10.581H131.016z"/>
		<path style="fill:#F2EFDC;" d="M114.981,151.461H96.391l9.294,16.105L114.981,151.461z M111.797,153.32l-6.112,10.581
			l-6.108-10.581H111.797z"/>
		<path style="fill:#F2EFDC;" d="M95.762,151.461H77.169l9.297,16.105L95.762,151.461z M92.575,153.32l-6.109,10.581l-6.11-10.581
			H92.575z"/>
		<path style="fill:#F2EFDC;" d="M77.169,151.461H58.578l9.297,16.105L77.169,151.461z M73.984,153.32l-6.109,10.581l-6.11-10.581
			H73.984z"/>
		<path style="fill:#F2EFDC;" d="M57.949,151.461H39.357l9.297,16.105L57.949,151.461z M54.764,153.32l-6.109,10.581l-6.11-10.581
			H54.764z"/>
		<path style="fill:#F2EFDC;" d="M38.729,151.461H20.139l9.296,16.105L38.729,151.461z M35.544,153.32l-6.109,10.581l-6.11-10.581
			H35.544z"/>
		<path style="fill:#F2EFDC;" d="M19.509,151.461H0.917l9.297,16.105L19.509,151.461z M16.323,153.32l-6.109,10.581l-6.11-10.581
			H16.323z"/>
		<path style="fill:#F7C63B;" d="M0.799,151.461h0.118h18.592h0.63h18.591h0.628h18.592h0.629h18.591h18.593h0.629h18.591h0.63
			h18.591h0.628h18.458h0.133h18.458h0.636h18.584h0.63h18.591h0.629h18.583c0.306-1.604,0.523-3.242,0.65-4.908H0.148
			C0.275,148.219,0.493,149.858,0.799,151.461z"/>
		<path style="fill:#DC4437;" d="M147.079,132.362h-0.1h-15.54h-0.522h-15.54h-0.523H99.314h-0.523h-15.54H0v10.531
			c0,1.23,0.049,2.451,0.148,3.66h230.033c0.1-1.209,0.148-2.431,0.148-3.66v-10.531H147.079z"/>
		<path style="fill:#109D59;" d="M210.948,151.461h-0.629l-9.296,16.105l-9.295-16.105h-0.63l-9.295,16.105l-9.289-16.105h-0.636
			l-9.296,16.105l-9.225-15.993l-9.233,15.993l-9.295-16.105h-0.628l-9.296,16.105l-9.295-16.105h-0.63l-9.297,16.105l-9.294-16.105
			h-0.629l-9.296,16.105l-9.297-16.105l-9.294,16.105l-9.297-16.105h-0.629l-9.295,16.105l-9.297-16.105h-0.628l-9.295,16.105
			l-9.296-16.105h-0.63l-9.295,16.105l-9.297-16.105H0.799c4.019,21.325,22.743,37.452,45.227,37.452h138.278
			c22.475,0,41.188-16.106,45.221-37.409l-9.281,16.063L210.948,151.461z"/>
	</g>
	<g>
		<path style="fill:#C43D31;" d="M141.364,96.555H128.01c0.626,1.857,1.201,3.736,1.683,5.652h12.76
			C142.112,100.357,141.745,98.47,141.364,96.555z"/>
		<path style="fill:#DAD8C6;" d="M140.184,90.905h-14.321c0.793,1.848,1.501,3.734,2.146,5.65h13.355
			C140.982,94.69,140.594,92.805,140.184,90.905z"/>
		<path style="fill:#4E3025;" d="M115.369,41.416c-5.959,0-11.082,7.008-15.377,17.124c11.448,8.474,20.387,19.581,25.871,32.364
			h14.321C134.964,66.916,126.742,41.416,115.369,41.416z"/>
		<path style="fill:#4E3025;" d="M142.452,102.207h-12.76c0.009,0.034,0.02,0.067,0.028,0.102
			c2.467,8.387,1.278,16.771-2.115,24.317l3.312,5.735h0.522l7.771-13.456l7.77,13.456h0.1
			C147.079,132.362,145.559,118.834,142.452,102.207z"/>
		<path style="fill:#DFB335;" d="M107.084,118.906l-7.77,13.456h15.539L107.084,118.906z M107.084,121.971l5.106,8.844h-10.214
			L107.084,121.971z"/>
		<path style="fill:#DFB335;" d="M127.605,126.626c-0.255,0.566-0.519,1.129-0.797,1.686l1.445,2.503h-2.803
			c-0.303,0.521-0.612,1.037-0.935,1.547h6.4L127.605,126.626z"/>
		<path style="fill:#DFB335;" d="M131.439,132.362h15.54l-7.77-13.456L131.439,132.362z M134.102,130.815l5.107-8.844l5.106,8.844
			H134.102z"/>
		<polygon style="fill:#DAD8C6;" points="134.102,130.815 144.316,130.815 139.21,121.971 		"/>
		<path style="fill:#DAD8C6;" d="M126.809,128.312c-0.425,0.847-0.881,1.681-1.357,2.503h2.803L126.809,128.312z"/>
		<polygon style="fill:#DAD8C6;" points="107.084,121.971 101.976,130.815 112.19,130.815 		"/>
		<polygon style="fill:#C43D31;" points="207.141,153.32 194.913,153.32 201.023,163.901 		"/>
		<polygon style="fill:#C43D31;" points="220.244,163.901 226.352,153.32 214.134,153.32 		"/>
		<path style="fill:#DAD8C6;" d="M220.244,167.567l9.281-16.063c0-0.015,0.006-0.028,0.006-0.043h-18.583L220.244,167.567z
			 M220.244,163.901l-6.11-10.581h12.219L220.244,163.901z"/>
		<path style="fill:#DAD8C6;" d="M210.319,151.461h-18.591l9.295,16.105L210.319,151.461z M207.141,153.32l-6.117,10.581
			l-6.11-10.581H207.141z"/>
		<path style="fill:#DAD8C6;" d="M188.877,151.461c0.013,1.339-0.029,2.688-0.113,4.045l2.335-4.045H188.877z"/>
		<path style="fill:#DFB335;" d="M188.643,146.553c0.133,1.627,0.218,3.261,0.234,4.908h2.222h0.63h18.591h0.629h18.583
			c0.306-1.604,0.523-3.242,0.65-4.908H188.643z"/>
		<path style="fill:#C43D31;" d="M186.646,132.362c0.802,4.732,1.609,9.427,1.996,14.191h41.539c0.1-1.209,0.148-2.431,0.148-3.66
			v-10.531H186.646z"/>
		<path style="fill:#0E854C;" d="M220.244,167.567l-9.296-16.105h-0.629l-9.296,16.105l-9.295-16.105h-0.63l-2.335,4.045
			c-0.017,0.269-0.022,0.534-0.043,0.803c-0.92,14.254-8.19,25.116-18.49,32.604h14.074c22.475,0,41.188-16.106,45.221-37.409
			L220.244,167.567z"/>
	</g>
</g>
</svg>